<?xml version="1.0" standalone="no"?>
<!DOCTYPE svg PUBLIC "-//W3C//DTD SVG 20010904//EN"
 "http://www.w3.org/TR/2001/REC-SVG-20010904/DTD/svg10.dtd">
<svg version="1.0" xmlns="http://www.w3.org/2000/svg"
 width="512.000000pt" height="512.000000pt" viewBox="0 0 512.000000 512.000000"
 preserveAspectRatio="xMidYMid meet">

<g transform="translate(0.000000,512.000000) scale(0.100000,-0.100000)"
fill="#00bfff" stroke="none">
<path d="M3621 4293 c-49 -26 -73 -63 -80 -127 l-6 -57 -117 -87 c-126 -94
-276 -190 -403 -259 -65 -34 -90 -43 -132 -43 -86 0 -257 27 -617 100 -605
121 -782 149 -1028 157 -239 8 -383 -19 -562 -108 -462 -230 -772 -823 -645
-1234 23 -77 78 -190 139 -289 73 -120 90 -161 90 -220 0 -87 -62 -194 -195
-336 -29 -31 -55 -65 -59 -77 -8 -25 80 -657 95 -686 6 -10 78 -63 160 -118
l150 -99 112 0 c122 0 150 9 167 56 11 29 -5 81 -30 94 -10 6 -35 10 -54 10
-29 0 -38 5 -50 28 -30 59 -47 182 -44 327 l3 140 55 29 c237 122 404 227 515
322 83 69 94 71 445 49 483 -31 789 -24 944 21 27 8 55 14 62 14 18 0 31 -50
44 -164 12 -109 67 -396 106 -550 31 -121 51 -162 103 -209 74 -67 90 -71 263
-75 157 -4 157 -4 183 22 36 36 34 81 -6 115 -127 106 -134 127 -133 366 1
245 43 625 77 695 20 42 30 49 142 105 67 33 149 79 183 103 240 165 500 461
676 768 l46 81 192 6 c405 13 624 80 687 210 19 39 21 61 21 232 0 236 -6 254
-113 322 -96 63 -270 144 -402 188 -180 60 -279 77 -468 82 l-167 3 -53 34
c-110 69 -231 94 -296 59z m172 -179 c29 -15 73 -46 99 -70 39 -36 54 -44 86
-44 22 0 45 6 51 14 19 23 69 27 185 16 206 -20 450 -98 638 -205 l93 -52 3
-163 c2 -115 -1 -167 -10 -177 -54 -66 -319 -108 -625 -101 -200 5 -238 14
-339 79 -68 44 -100 48 -138 18 -37 -29 -36 -86 2 -121 44 -40 91 -70 151 -94
31 -13 55 -29 53 -35 -6 -23 -123 -202 -192 -294 -88 -117 -249 -286 -347
-366 -101 -80 -170 -124 -280 -175 -113 -53 -171 -104 -207 -183 -38 -85 -88
-521 -90 -776 0 -186 -1 -185 49 -307 6 -15 3 -16 -27 -8 -57 16 -73 46 -111
207 -51 210 -75 337 -92 482 -15 120 -20 137 -107 356 -51 127 -102 240 -115
253 -13 13 -34 22 -51 22 -36 0 -82 -43 -82 -76 0 -14 20 -75 45 -136 25 -62
42 -115 37 -119 -4 -4 -41 -15 -82 -24 -119 -26 -469 -29 -802 -8 l-277 18 44
70 c53 82 58 123 20 160 -24 25 -57 31 -90 19 -9 -4 -40 -43 -69 -88 -133
-204 -311 -346 -668 -536 -211 -112 -202 -96 -202 -350 0 -102 5 -206 11 -232
8 -35 7 -46 -1 -41 -10 6 -97 63 -104 69 -2 1 -21 123 -42 271 l-39 268 47 55
c116 135 172 228 198 330 31 121 8 205 -105 394 -122 203 -146 279 -138 441 4
86 12 130 35 202 94 280 293 517 539 642 279 140 552 130 1451 -55 378 -78
541 -104 661 -107 104 -2 107 -1 185 36 128 61 360 208 513 324 l33 25 17 -33
c47 -88 110 -113 158 -64 33 33 31 62 -10 143 -19 37 -37 86 -41 110 -8 52 3
54 79 16z"/>
<path d="M4095 3865 c-32 -31 -32 -74 0 -109 22 -24 31 -26 100 -26 67 0 79 3
100 25 33 32 34 83 2 113 -20 19 -35 22 -101 22 -68 0 -80 -3 -101 -25z"/>
</g>
</svg>
